<svg xmlns="http://www.w3.org/2000/svg" width="260" height="60" viewBox="0 0 260 60" fill="none"><path d="M218.21 3.76001V12.16H221.33C221.33 11.7266 221.415 11.2975 221.581 10.8972C221.747 10.4968 221.99 10.133 222.297 9.82656C222.915 9.20769 223.755 8.86001 224.63 8.86001H233.13V24.86C233.13 25.7361 232.783 26.5765 232.164 27.197C231.545 27.8175 230.706 28.1674 229.83 28.17V31H243.34V28.21C242.903 28.214 242.469 28.1313 242.064 27.9667C241.659 27.8021 241.291 27.559 240.98 27.2512C240.669 26.9434 240.423 26.5772 240.255 26.1737C240.087 25.7701 240 25.3372 240 24.9V8.90001H248.5C249.375 8.90001 250.215 9.24769 250.833 9.86656C251.452 10.4854 251.8 11.3248 251.8 12.2H255V3.76001H218.21Z" fill="white"></path><path d="M197.07 8.86001C197.946 8.86001 198.787 9.20736 199.407 9.82595C200.028 10.4445 200.377 11.2839 200.38 12.16H203.21V3.76001H168.6V31.05H203.21V22.64H200.38C200.377 23.5161 200.028 24.3555 199.407 24.9741C198.787 25.5927 197.946 25.94 197.07 25.94H175V19.67H188.31V15.13H175V8.86001H197.07Z" fill="white"></path><path d="M145.17 3.83997L129.17 19.47L113.07 3.83997H106.67V31H116.37V28.21C115.495 28.21 114.655 27.8623 114.036 27.2434C113.418 26.6245 113.07 25.7852 113.07 24.91V11L129.12 26.62L145.12 11V25C145.117 25.8761 144.767 26.7154 144.147 27.334C143.526 27.9526 142.686 28.3 141.81 28.3V31H151.52V3.83997H145.17Z" fill="white"></path><path d="M33.5201 8.86001C34.3962 8.86001 35.2366 9.20736 35.857 9.82595C36.4775 10.4445 36.8274 11.2839 36.8301 12.16H39.66V3.76001H5.05005V31.05H39.66V22.64H36.8301C36.8274 23.5161 36.4775 24.3555 35.857 24.9741C35.2366 25.5927 34.3962 25.94 33.5201 25.94H11.45V19.67H24.76V15.13H11.45V8.86001H33.5201Z" fill="white"></path><path d="M77.78 10.6L85.4 3.84998H93.09L81.62 14L77.78 10.6Z" fill="#0DB14B"></path><path d="M54.6599 3.83997H71.5499V6.66997C71.0873 6.6597 70.6326 6.79171 70.2474 7.04814C69.8622 7.30458 69.565 7.67308 69.396 8.10386C69.2269 8.53464 69.1942 9.00692 69.3022 9.4569C69.4102 9.90688 69.6538 10.3129 69.9999 10.62L93.0899 31H76.2299V28.21C76.6877 28.2109 77.1348 28.0722 77.5116 27.8124C77.8885 27.5526 78.1771 27.184 78.3391 26.7558C78.501 26.3277 78.5284 25.8604 78.4178 25.4162C78.3072 24.972 78.0637 24.5722 77.7199 24.27L73.8699 20.86L62.3699 31H54.6599L69.9999 17.44L54.6599 3.83997Z" fill="white"></path><path d="M13.2 50.16H15.29V54.9C14.65 55.3945 13.9246 55.7674 13.15 56C12.3351 56.2592 11.4851 56.3908 10.63 56.39C9.48737 56.409 8.35868 56.1372 7.35 55.6C6.39827 55.0976 5.60271 54.3435 5.05 53.42C4.50565 52.4612 4.21948 51.3776 4.21948 50.275C4.21948 49.1725 4.50565 48.0888 5.05 47.13C5.61485 46.2256 6.41277 45.4898 7.36 45C8.37768 44.4677 9.51158 44.1963 10.66 44.21C11.5905 44.1984 12.5144 44.3682 13.38 44.71C14.1735 45.0155 14.8806 45.5097 15.44 46.15L14.05 47.51C13.6255 47.0708 13.1154 46.7235 12.5512 46.4896C11.987 46.2556 11.3807 46.1401 10.77 46.15C9.99076 46.1366 9.2206 46.3188 8.53 46.68C7.89543 47.0076 7.36537 47.5065 7 48.12C6.6394 48.7829 6.45049 49.5255 6.45049 50.28C6.45049 51.0346 6.6394 51.7772 7 52.44C7.36554 53.0662 7.89439 53.5812 8.53 53.93C9.21045 54.3011 9.97503 54.4905 10.75 54.48C11.6074 54.4959 12.4534 54.2818 13.2 53.86V50.16Z" fill="white"></path><path d="M28 56.2399L25.57 52.7599H22.45V56.2299H20.24V44.3399H25.13C26.0557 44.3198 26.9754 44.4935 27.83 44.8499C28.5494 45.1546 29.162 45.6663 29.59 46.3199C30.0076 46.9985 30.2194 47.7835 30.2 48.5799C30.2219 49.3994 29.9915 50.2058 29.54 50.8899C29.0812 51.5565 28.423 52.0606 27.66 52.3299L30.4 56.2399H28ZM27.2 46.8199C26.5575 46.3721 25.7814 46.1569 25 46.2099H22.45V50.9999H25C25.7797 51.0527 26.5536 50.8336 27.19 50.3799C27.4271 50.1522 27.6158 49.879 27.7447 49.5765C27.8736 49.2741 27.94 48.9487 27.94 48.6199C27.94 48.2912 27.8736 47.9658 27.7447 47.6634C27.6158 47.3609 27.4271 47.0876 27.19 46.8599L27.2 46.8199Z" fill="white"></path><path d="M36.3299 55C35.8424 54.4605 35.4689 53.8281 35.2318 53.1408C34.9946 52.4534 34.8988 51.7253 34.9499 51V44.34H37.1599V51C37.1599 53.34 38.1599 54.51 40.1599 54.51C42.1599 54.51 43.1599 53.34 43.1599 51V44.34H45.3399V51.06C45.4331 52.499 44.9511 53.9161 43.9999 55C43.4869 55.4785 42.882 55.8476 42.2218 56.0848C41.5616 56.3221 40.8601 56.4225 40.1599 56.38C39.4614 56.42 38.7621 56.3183 38.1039 56.0812C37.4458 55.844 36.8423 55.4763 36.3299 55Z" fill="white"></path><path d="M73.1 44.85C73.8194 45.1546 74.4321 45.6663 74.86 46.32C75.2598 47.0042 75.4705 47.7825 75.4705 48.575C75.4705 49.3675 75.2598 50.1457 74.86 50.83C74.4321 51.4836 73.8194 51.9953 73.1 52.3C72.2489 52.6564 71.3325 52.8302 70.41 52.81H67.72V56.24H65.51V44.34H70.41C71.3325 44.3198 72.2489 44.4935 73.1 44.85ZM72.5 50.33C72.7344 50.1017 72.9206 49.8288 73.0478 49.5274C73.175 49.2259 73.2405 48.9021 73.2405 48.575C73.2405 48.2478 73.175 47.924 73.0478 47.6226C72.9206 47.3211 72.7344 47.0482 72.5 46.82C71.8572 46.3728 71.0813 46.1577 70.3 46.21H67.72V50.94H70.3C71.0813 50.9922 71.8572 50.7771 72.5 50.33Z" fill="white"></path><path d="M58.1 44.85C58.8194 45.1546 59.4321 45.6663 59.86 46.32C60.2598 47.0042 60.4705 47.7825 60.4705 48.575C60.4705 49.3675 60.2598 50.1457 59.86 50.83C59.4321 51.4836 58.8194 51.9953 58.1 52.3C57.2489 52.6564 56.3325 52.8302 55.41 52.81H52.72V56.24H50.51V44.34H55.41C56.3325 44.3198 57.2489 44.4935 58.1 44.85ZM57.5 50.33C57.7344 50.1017 57.9206 49.8288 58.0478 49.5274C58.175 49.2259 58.2405 48.9021 58.2405 48.575C58.2405 48.2478 58.175 47.924 58.0478 47.6226C57.9206 47.3211 57.7344 47.0482 57.5 46.82C56.8572 46.3728 56.0813 46.1577 55.3 46.21H52.72V50.94H55.3C56.0813 50.9922 56.8572 50.7771 57.5 50.33Z" fill="white"></path></svg>